<svg width="33" height="34" viewBox="0 0 33 34" fill="none" xmlns="http://www.w3.org/2000/svg">
<path d="M9.96035 32C9.02584 32 8.26828 31.2538 8.26828 30.3333C8.26828 29.4129 9.02584 28.6667 9.96035 28.6667C10.8949 28.6667 11.6524 29.4129 11.6524 30.3333C11.6524 31.2538 10.8949 32 9.96035 32Z" fill="black"/>
<path d="M26.881 32C25.9465 32 25.189 31.2538 25.189 30.3333C25.189 29.4129 25.9465 28.6667 26.881 28.6667C27.8155 28.6667 28.5731 29.4129 28.5731 30.3333C28.5731 31.2538 27.8155 32 26.881 32Z" fill="black"/>
<path d="M1.5 2H1.95406C2.75573 2 3.15727 2 3.48424 2.14246C3.77252 2.26807 4.019 2.47029 4.19674 2.72673C4.398 3.01709 4.47067 3.40483 4.61573 4.17879L8.26834 23.6667L25.9027 23.6667C26.6695 23.6667 27.0541 23.6667 27.3718 23.5332C27.6524 23.4153 27.8944 23.2244 28.0741 22.9816C28.2773 22.707 28.3634 22.3395 28.5355 21.6052L28.5368 21.5999L31.192 10.2666L31.1926 10.2642C31.4536 9.15026 31.5844 8.59192 31.4407 8.15397C31.3147 7.7697 31.0495 7.44391 30.6977 7.23653C30.2964 7 29.7166 7 28.554 7H5.73017M26.881 32C25.9465 32 25.189 31.2538 25.189 30.3333C25.189 29.4129 25.9465 28.6667 26.881 28.6667C27.8155 28.6667 28.5731 29.4129 28.5731 30.3333C28.5731 31.2538 27.8155 32 26.881 32ZM9.96035 32C9.02584 32 8.26828 31.2538 8.26828 30.3333C8.26828 29.4129 9.02584 28.6667 9.96035 28.6667C10.8949 28.6667 11.6524 29.4129 11.6524 30.3333C11.6524 31.2538 10.8949 32 9.96035 32Z" stroke="black" stroke-width="3" stroke-linecap="round" stroke-linejoin="round"/>
</svg>
