<svg width="33" height="33" viewBox="0 0 33 33" fill="none" xmlns="http://www.w3.org/2000/svg">
<path d="M27.2143 29.3571C27.2143 30.5406 28.1737 31.5 29.3571 31.5C30.5406 31.5 31.5 30.5406 31.5 29.3571C31.5 28.1737 30.5406 27.2143 29.3571 27.2143C28.1737 27.2143 27.2143 28.1737 27.2143 29.3571Z" fill="black"/>
<path d="M14.3571 29.3571C14.3571 30.5406 15.3165 31.5 16.5 31.5C17.6835 31.5 18.6429 30.5406 18.6429 29.3571C18.6429 28.1737 17.6835 27.2143 16.5 27.2143C15.3165 27.2143 14.3571 28.1737 14.3571 29.3571Z" fill="black"/>
<path d="M1.5 29.3571C1.5 30.5406 2.45939 31.5 3.64286 31.5C4.82632 31.5 5.78571 30.5406 5.78571 29.3571C5.78571 28.1737 4.82632 27.2143 3.64286 27.2143C2.45939 27.2143 1.5 28.1737 1.5 29.3571Z" fill="black"/>
<path d="M27.2143 16.5C27.2143 17.6835 28.1737 18.6429 29.3571 18.6429C30.5406 18.6429 31.5 17.6835 31.5 16.5C31.5 15.3165 30.5406 14.3571 29.3571 14.3571C28.1737 14.3571 27.2143 15.3165 27.2143 16.5Z" fill="black"/>
<path d="M14.3571 16.5C14.3571 17.6835 15.3165 18.6429 16.5 18.6429C17.6835 18.6429 18.6429 17.6835 18.6429 16.5C18.6429 15.3165 17.6835 14.3571 16.5 14.3571C15.3165 14.3571 14.3571 15.3165 14.3571 16.5Z" fill="black"/>
<path d="M1.5 16.5C1.5 17.6835 2.45939 18.6429 3.64286 18.6429C4.82632 18.6429 5.78571 17.6835 5.78571 16.5C5.78571 15.3165 4.82632 14.3571 3.64286 14.3571C2.45939 14.3571 1.5 15.3165 1.5 16.5Z" fill="black"/>
<path d="M27.2143 3.64286C27.2143 4.82632 28.1737 5.78571 29.3571 5.78571C30.5406 5.78571 31.5 4.82632 31.5 3.64286C31.5 2.45939 30.5406 1.5 29.3571 1.5C28.1737 1.5 27.2143 2.45939 27.2143 3.64286Z" fill="black"/>
<path d="M14.3571 3.64286C14.3571 4.82632 15.3165 5.78571 16.5 5.78571C17.6835 5.78571 18.6429 4.82632 18.6429 3.64286C18.6429 2.45939 17.6835 1.5 16.5 1.5C15.3165 1.5 14.3571 2.45939 14.3571 3.64286Z" fill="black"/>
<path d="M1.5 3.64286C1.5 4.82632 2.45939 5.78571 3.64286 5.78571C4.82632 5.78571 5.78571 4.82632 5.78571 3.64286C5.78571 2.45939 4.82632 1.5 3.64286 1.5C2.45939 1.5 1.5 2.45939 1.5 3.64286Z" fill="black"/>
<path d="M27.2143 29.3571C27.2143 30.5406 28.1737 31.5 29.3571 31.5C30.5406 31.5 31.5 30.5406 31.5 29.3571C31.5 28.1737 30.5406 27.2143 29.3571 27.2143C28.1737 27.2143 27.2143 28.1737 27.2143 29.3571Z" stroke="black" stroke-width="2" stroke-linecap="round" stroke-linejoin="round"/>
<path d="M14.3571 29.3571C14.3571 30.5406 15.3165 31.5 16.5 31.5C17.6835 31.5 18.6429 30.5406 18.6429 29.3571C18.6429 28.1737 17.6835 27.2143 16.5 27.2143C15.3165 27.2143 14.3571 28.1737 14.3571 29.3571Z" stroke="black" stroke-width="2" stroke-linecap="round" stroke-linejoin="round"/>
<path d="M1.5 29.3571C1.5 30.5406 2.45939 31.5 3.64286 31.5C4.82632 31.5 5.78571 30.5406 5.78571 29.3571C5.78571 28.1737 4.82632 27.2143 3.64286 27.2143C2.45939 27.2143 1.5 28.1737 1.5 29.3571Z" stroke="black" stroke-width="2" stroke-linecap="round" stroke-linejoin="round"/>
<path d="M27.2143 16.5C27.2143 17.6835 28.1737 18.6429 29.3571 18.6429C30.5406 18.6429 31.5 17.6835 31.5 16.5C31.5 15.3165 30.5406 14.3571 29.3571 14.3571C28.1737 14.3571 27.2143 15.3165 27.2143 16.5Z" stroke="black" stroke-width="2" stroke-linecap="round" stroke-linejoin="round"/>
<path d="M14.3571 16.5C14.3571 17.6835 15.3165 18.6429 16.5 18.6429C17.6835 18.6429 18.6429 17.6835 18.6429 16.5C18.6429 15.3165 17.6835 14.3571 16.5 14.3571C15.3165 14.3571 14.3571 15.3165 14.3571 16.5Z" stroke="black" stroke-width="2" stroke-linecap="round" stroke-linejoin="round"/>
<path d="M1.5 16.5C1.5 17.6835 2.45939 18.6429 3.64286 18.6429C4.82632 18.6429 5.78571 17.6835 5.78571 16.5C5.78571 15.3165 4.82632 14.3571 3.64286 14.3571C2.45939 14.3571 1.5 15.3165 1.5 16.5Z" stroke="black" stroke-width="2" stroke-linecap="round" stroke-linejoin="round"/>
<path d="M27.2143 3.64286C27.2143 4.82632 28.1737 5.78571 29.3571 5.78571C30.5406 5.78571 31.5 4.82632 31.5 3.64286C31.5 2.45939 30.5406 1.5 29.3571 1.5C28.1737 1.5 27.2143 2.45939 27.2143 3.64286Z" stroke="black" stroke-width="2" stroke-linecap="round" stroke-linejoin="round"/>
<path d="M14.3571 3.64286C14.3571 4.82632 15.3165 5.78571 16.5 5.78571C17.6835 5.78571 18.6429 4.82632 18.6429 3.64286C18.6429 2.45939 17.6835 1.5 16.5 1.5C15.3165 1.5 14.3571 2.45939 14.3571 3.64286Z" stroke="black" stroke-width="2" stroke-linecap="round" stroke-linejoin="round"/>
<path d="M1.5 3.64286C1.5 4.82632 2.45939 5.78571 3.64286 5.78571C4.82632 5.78571 5.78571 4.82632 5.78571 3.64286C5.78571 2.45939 4.82632 1.5 3.64286 1.5C2.45939 1.5 1.5 2.45939 1.5 3.64286Z" stroke="black" stroke-width="2" stroke-linecap="round" stroke-linejoin="round"/>
</svg>
